<?xml version="1.0" encoding="UTF-8" standalone="no"?>
<!-- Created with Inkscape (http://www.inkscape.org/) -->

<svg
   xmlns:dc="http://purl.org/dc/elements/1.1/"
   xmlns:cc="http://creativecommons.org/ns#"
   xmlns:rdf="http://www.w3.org/1999/02/22-rdf-syntax-ns#"
   xmlns:svg="http://www.w3.org/2000/svg"
   xmlns="http://www.w3.org/2000/svg"
   xmlns:sodipodi="http://sodipodi.sourceforge.net/DTD/sodipodi-0.dtd"
   xmlns:inkscape="http://www.inkscape.org/namespaces/inkscape"
   width="280.11725"
   height="280.12161"
   id="svg2"
   version="1.1"
   inkscape:version="0.48.4 r9939"
   sodipodi:docname="logo_web.svg"
   inkscape:export-filename="/home/alphasheep/Documents/Cubing/ZACubing/logo_high_res.png"
   inkscape:export-xdpi="328.99997"
   inkscape:export-ydpi="328.99997">
  <defs
     id="defs4" />
  <sodipodi:namedview
     id="base"
     pagecolor="#ffffff"
     bordercolor="#666666"
     borderopacity="1.0"
     inkscape:pageopacity="0.0"
     inkscape:pageshadow="2"
     inkscape:zoom="1.6761253"
     inkscape:cx="45.517677"
     inkscape:cy="111.43257"
     inkscape:document-units="px"
     inkscape:current-layer="layer4"
     showgrid="false"
     inkscape:object-nodes="true"
     inkscape:snap-nodes="true"
     inkscape:window-width="1547"
     inkscape:window-height="876"
     inkscape:window-x="1653"
     inkscape:window-y="24"
     inkscape:window-maximized="1"
     inkscape:snap-object-midpoints="true"
     inkscape:object-paths="true"
     showguides="true"
     inkscape:guide-bbox="true"
     fit-margin-top="0"
     fit-margin-left="12.77"
     fit-margin-right="12.77"
     fit-margin-bottom="0" />
  <metadata
     id="metadata7">
    <rdf:RDF>
      <cc:Work
         rdf:about="">
        <dc:format>image/svg+xml</dc:format>
        <dc:type
           rdf:resource="http://purl.org/dc/dcmitype/StillImage" />
        <dc:title></dc:title>
      </cc:Work>
    </rdf:RDF>
  </metadata>
  <g
     inkscape:groupmode="layer"
     id="layer4"
     inkscape:label="Highlights"
     style="display:inline"
     transform="translate(-153.89853,-540.68295)">
    <path
       style="fill:#999999;stroke:none"
       d="m 320.21809,571.77044 6.66208,-3.85328 0,54.48926 -6.66208,3.85328 z"
       id="path4077"
       inkscape:connector-curvature="0" />
    <path
       style="fill:#cccccc;stroke:none"
       d="m 320.21809,626.25971 6.66208,-3.85329 47.18303,27.24464 -6.66207,3.84285 z"
       id="path4079"
       inkscape:connector-curvature="0" />
    <path
       style="fill:#ffff00;stroke:none"
       d="m 213.85203,626.25969 11.99999,2e-5 47.18303,27.24463 -11.99998,-0.0104 z"
       id="path4081"
       inkscape:connector-curvature="0" />
    <path
       style="fill:#d4aa00;stroke:none"
       d="m 273.03506,653.49391 -11.99999,-10e-6 0,54.48926 11.99999,0.0104 z"
       id="path4083"
       inkscape:connector-curvature="0" />
    <path
       style="fill:#ffff00;stroke:none"
       d="m 213.85203,735.2278 12,0 47.18303,-27.23421 -11.99999,-0.0104 z"
       id="path4085"
       inkscape:connector-curvature="0" />
    <path
       inkscape:connector-curvature="0"
       id="path4087"
       d="m 320.21809,789.70664 6.66208,3.85328 0,-54.48926 -6.66208,-3.85328 z"
       style="fill:#999999;stroke:none" />
    <path
       inkscape:connector-curvature="0"
       id="path4089"
       d="m 320.21809,735.21737 6.66208,3.85329 47.18303,-27.24464 -6.66207,-3.84285 z"
       style="fill:#cccccc;stroke:none" />
  </g>
  <g
     inkscape:label="Cubes"
     inkscape:groupmode="layer"
     id="layer1"
     style="display:inline"
     transform="translate(-153.89853,-540.68295)">
    <g
       transform="matrix(0.33352267,0,0,0.33352267,228.73861,449.34677)"
       id="g3942">
      <path
         inkscape:connector-curvature="0"
         style="fill:#00ff00;fill-opacity:1;stroke:none"
         d="M 274.28125,530.4375 132.8125,612.09375 274.28125,693.78125 415.75,612.09375 274.28125,530.4375 z"
         id="path3944" />
      <path
         inkscape:connector-curvature="0"
         style="fill:#00aa00;fill-opacity:1;stroke:none"
         d="m 415.75,612.09375 -141.46875,81.6875 0,163.375 141.46875,-81.6875 0,-163.375 z"
         id="path3946" />
      <path
         id="path3948"
         d="m 132.8125,612.09375 141.46875,81.6875 0,163.375 -141.46875,-81.6875 0,-163.375 z"
         style="fill:#005500;fill-opacity:1;stroke:none"
         inkscape:connector-curvature="0" />
    </g>
    <g
       id="g3950"
       transform="translate(55.49577,517.52362)">
      <path
         inkscape:connector-curvature="0"
         style="fill:#0066ff;fill-opacity:1;stroke:none"
         d="m 318.56696,194.31283 -47.18303,27.23421 47.18303,27.24463 47.18304,-27.24463 -47.18304,-27.23421 z"
         id="path3952" />
      <path
         inkscape:connector-curvature="0"
         style="fill:#0044aa;fill-opacity:1;stroke:none"
         d="m 365.75,221.54704 -47.18304,27.24463 0,54.48927 47.18304,-27.24464 0,-54.48926 z"
         id="path3954" />
      <path
         id="path3956"
         d="m 271.38393,221.54704 47.18303,27.24463 0,54.48927 -47.18303,-27.24464 0,-54.48926 z"
         style="fill:#002255;fill-opacity:1;stroke:none"
         inkscape:connector-curvature="0" />
    </g>
    <g
       transform="translate(161.92434,246.37012)"
       id="g3958">
      <g
         id="g3960">
        <path
           id="path3962"
           d="m 212.13839,294.31283 -47.18303,27.23421 47.18303,27.24463 47.18304,-27.24463 -47.18304,-27.23421 z"
           style="fill:#ff0000;fill-opacity:1;stroke:none"
           inkscape:connector-curvature="0" />
        <path
           id="path3964"
           d="m 259.32143,321.54704 -47.18304,27.24463 0,54.48927 47.18304,-27.24464 0,-54.48926 z"
           style="fill:#aa0000;fill-opacity:1;stroke:none"
           inkscape:connector-curvature="0" />
        <path
           inkscape:connector-curvature="0"
           style="fill:#550000;fill-opacity:1;stroke:none"
           d="m 164.95536,321.54704 47.18303,27.24463 0,54.48927 -47.18303,-27.24464 0,-54.48926 z"
           id="path3966" />
      </g>
    </g>
    <g
       transform="translate(266.63281,423.87574)"
       id="g3968">
      <path
         id="path3970"
         d="m -52.78125,202.38395 -47.18303,27.23421 47.18303,27.24463 47.18304,-27.24463 -47.18304,-27.23421 z"
         style="fill:#4d4d4d;fill-opacity:1;stroke:none"
         inkscape:connector-curvature="0" />
      <path
         id="path3972"
         d="m -5.59821,229.61816 -47.18304,27.24463 0,54.48927 47.18304,-27.24464 0,-54.48926 z"
         style="fill:#333333;fill-opacity:1;stroke:none"
         inkscape:connector-curvature="0" />
      <path
         inkscape:connector-curvature="0"
         style="fill:#1a1a1a;fill-opacity:1;stroke:none"
         d="m -99.96428,229.61816 47.18303,27.24463 0,54.48927 -47.18303,-27.24464 0,-54.48926 z"
         id="path3974" />
    </g>
    <g
       id="g3984"
       transform="matrix(0.33352267,0,0,0.33352267,181.55557,367.6233)">
      <path
         id="path3986"
         d="M 274.28125,530.4375 132.8125,612.09375 274.28125,693.78125 415.75,612.09375 274.28125,530.4375 z"
         style="fill:#00ff00;fill-opacity:1;stroke:none"
         inkscape:connector-curvature="0" />
      <path
         id="path3988"
         d="m 415.75,612.09375 -141.46875,81.6875 0,163.375 141.46875,-81.6875 0,-163.375 z"
         style="fill:#00aa00;fill-opacity:1;stroke:none"
         inkscape:connector-curvature="0" />
      <path
         inkscape:connector-curvature="0"
         style="fill:#005500;fill-opacity:1;stroke:none"
         d="m 132.8125,612.09375 141.46875,81.6875 0,163.375 -141.46875,-81.6875 0,-163.375 z"
         id="path3990" />
    </g>
    <g
       id="g4000"
       transform="matrix(0.33352267,0,0,0.33352267,181.55558,531.08066)">
      <path
         id="path4002"
         d="M 274.28125,530.4375 132.8125,612.09375 274.28125,693.78125 415.75,612.09375 274.28125,530.4375 z"
         style="fill:#00ff00;fill-opacity:1;stroke:none"
         inkscape:connector-curvature="0" />
      <path
         id="path4004"
         d="m 415.75,612.09375 -141.46875,81.6875 0,163.375 141.46875,-81.6875 0,-163.375 z"
         style="fill:#00aa00;fill-opacity:1;stroke:none"
         inkscape:connector-curvature="0" />
      <path
         inkscape:connector-curvature="0"
         style="fill:#005500;fill-opacity:1;stroke:none"
         d="m 132.8125,612.09375 141.46875,81.6875 0,163.375 -141.46875,-81.6875 0,-163.375 z"
         id="path4006" />
    </g>
  </g>
</svg>
